<svg width="87" height="32" viewBox="0 0 87 32" fill="none" xmlns="http://www.w3.org/2000/svg">
<path d="M2.66675 4.88891C2.66675 3.66161 3.66167 2.66669 4.88897 2.66669H8.77786C9.08468 2.66669 9.33341 2.91542 9.33341 3.22224V7.11113C9.33341 8.33843 8.33849 9.33335 7.11119 9.33335H3.2223C2.91548 9.33335 2.66675 9.08462 2.66675 8.7778V4.88891Z" fill="black"/>
<path d="M29.3334 4.88891C29.3334 3.66161 28.3385 2.66669 27.1112 2.66669H23.2223C22.9155 2.66669 22.6667 2.91542 22.6667 3.22224V7.11113C22.6667 8.33843 23.6617 9.33335 24.889 9.33335H28.7779C29.0847 9.33335 29.3334 9.08462 29.3334 8.7778V4.88891Z" fill="black"/>
<path d="M29.3334 24.8889C29.3334 23.6616 28.3385 22.6667 27.1112 22.6667H23.2223C22.9155 22.6667 22.6667 22.9154 22.6667 23.2222V27.1111C22.6667 28.3384 23.6617 29.3334 24.889 29.3334H28.7779C29.0847 29.3334 29.3334 29.0846 29.3334 28.7778V24.8889Z" fill="black"/>
<path d="M9.33341 16C9.33341 17.841 7.84103 19.3334 6.00008 19.3334C4.15913 19.3334 2.66675 17.841 2.66675 16C2.66675 14.1591 4.15913 12.6667 6.00008 12.6667C7.84103 12.6667 9.33341 14.1591 9.33341 16Z" fill="black"/>
<path d="M29.3334 16C29.3334 17.841 27.841 19.3334 26.0001 19.3334C24.1591 19.3334 22.6667 17.841 22.6667 16C22.6667 14.1591 24.1591 12.6667 26.0001 12.6667C27.841 12.6667 29.3334 14.1591 29.3334 16Z" fill="black"/>
<path d="M12.6667 3.22224C12.6667 2.91542 12.9155 2.66669 13.2223 2.66669H18.7779C19.0847 2.66669 19.3334 2.91542 19.3334 3.22224V28.7778C19.3334 29.0846 19.0847 29.3334 18.7779 29.3334H14.889C13.6617 29.3334 12.6667 28.3384 12.6667 27.1111V3.22224Z" fill="black"/>
<path d="M40.3039 29.3333C39.9634 29.3333 39.6408 29.2944 39.3361 29.2167C39.0404 29.1475 38.767 29.0438 38.5161 28.9056C38.2652 28.7586 38.0367 28.5858 37.8306 28.387C37.6335 28.1796 37.4677 27.9506 37.3333 27.7L38.6505 26.3778C38.8208 26.6111 38.9821 26.8012 39.1345 26.9481C39.2868 27.0864 39.4391 27.1858 39.5915 27.2463C39.7438 27.3068 39.9051 27.337 40.0754 27.337C40.2904 27.337 40.4786 27.2895 40.6399 27.1944C40.8102 27.0907 40.9401 26.9525 41.0297 26.7796C41.1194 26.6068 41.1642 26.4123 41.1642 26.1963V22.0611H39.4302V20.1296H44.8472V22.0611H43.3955V26.4426C43.3955 26.8833 43.3149 27.2809 43.1536 27.6352C43.0012 27.9895 42.7861 28.292 42.5083 28.5426C42.2305 28.7932 41.9035 28.9877 41.5271 29.1259C41.1507 29.2642 40.743 29.3333 40.3039 29.3333Z" fill="black"/>
<path d="M50.2642 29.3333C49.4218 29.3333 48.7049 29.1475 48.1135 28.7759C47.522 28.4043 47.0695 27.8728 46.7558 27.1815C46.4422 26.4815 46.2854 25.6432 46.2854 24.6667C46.2854 23.6901 46.4422 22.8562 46.7558 22.1648C47.0695 21.4648 47.522 20.929 48.1135 20.5574C48.7049 20.1858 49.4218 20 50.2642 20C51.1065 20 51.8234 20.1858 52.4148 20.5574C53.0063 20.929 53.4588 21.4648 53.7725 22.1648C54.0861 22.8562 54.2429 23.6901 54.2429 24.6667C54.2429 25.6432 54.0861 26.4815 53.7725 27.1815C53.4588 27.8728 53.0063 28.4043 52.4148 28.7759C51.8234 29.1475 51.1065 29.3333 50.2642 29.3333ZM50.2642 27.4537C50.8377 27.4537 51.2768 27.2117 51.5815 26.7278C51.8951 26.2438 52.0519 25.5568 52.0519 24.6667C52.0519 23.742 51.8951 23.0333 51.5815 22.5407C51.2768 22.0481 50.8377 21.8019 50.2642 21.8019C49.6906 21.8019 49.2471 22.0481 48.9334 22.5407C48.6198 23.0333 48.463 23.742 48.463 24.6667C48.463 25.5568 48.6198 26.2438 48.9334 26.7278C49.2471 27.2117 49.6906 27.4537 50.2642 27.4537Z" fill="black"/>
<path d="M61.7955 29.2037V20.1296H64.0941V29.2037H61.7955ZM55.9484 29.2037V20.1296H58.2469V29.2037H55.9484ZM56.8624 25.6778V23.6815H63.0053V25.6778H56.8624Z" fill="black"/>
<path d="M66.4366 29.2037V20.1296H68.4932L73.4398 26.5981L72.9962 26.5463C72.9335 26.0623 72.8797 25.613 72.8349 25.1981C72.7901 24.7747 72.7588 24.334 72.7408 23.8759C72.7319 23.4179 72.7274 22.8907 72.7274 22.2944V20.1296H74.9587V29.2037H72.8753L67.7405 22.5407L68.3991 22.6315C68.4619 23.1586 68.5111 23.5951 68.547 23.9407C68.5828 24.2864 68.6097 24.5846 68.6276 24.8352C68.6456 25.0772 68.659 25.3062 68.668 25.5222C68.6769 25.7296 68.6814 25.963 68.6814 26.2222V29.2037H66.4366Z" fill="black"/>
<path d="M77.2925 29.2037V20.1296H83.8521V22.0222H79.5372V27.3111H83.9999V29.2037H77.2925ZM78.3812 25.4963V23.6815H83.2606V25.4963H78.3812Z" fill="black"/>
<path d="M37.3333 11.9867V2.66669H39.3531L42.7062 8.1655L41.2805 8.15218L44.6732 2.66669H46.627V11.9867H44.4356V9.16407C44.4356 8.34746 44.4532 7.61517 44.4884 6.96721C44.5324 6.31037 44.6028 5.66685 44.6996 5.03663L44.9504 5.72898L42.4026 9.70996H41.5049L39.0098 5.75561L39.2607 5.03663C39.3663 5.63134 39.4367 6.24824 39.4719 6.88732C39.5159 7.51754 39.5379 8.27645 39.5379 9.16407V11.9867H37.3333Z" fill="black"/>
<path d="M47.7746 11.9867L51.4314 2.66669H53.3456L56.976 11.9867H54.7053L52.9496 7.26012C52.888 7.07372 52.8175 6.87401 52.7383 6.66098C52.6679 6.44795 52.5975 6.22605 52.5271 5.99527C52.4567 5.76448 52.3907 5.54258 52.3291 5.32955C52.2675 5.11652 52.2147 4.91681 52.1707 4.73041L52.5535 4.71709C52.5007 4.939 52.4435 5.15646 52.3819 5.36949C52.3203 5.58252 52.2543 5.79555 52.1839 6.00858C52.1135 6.22161 52.0387 6.43464 51.9595 6.64767C51.889 6.85182 51.8142 7.06485 51.735 7.28675L49.9924 11.9867H47.7746ZM49.5172 10.2026L50.2301 8.47173H54.4545L55.1674 10.2026H49.5172Z" fill="black"/>
<path d="M58.128 11.9867V2.66669H62.3128C62.9113 2.66669 63.4482 2.79539 63.9234 3.0528C64.3987 3.31021 64.7727 3.66526 65.0455 4.11795C65.3272 4.56176 65.468 5.07214 65.468 5.64909C65.468 6.23492 65.3272 6.75862 65.0455 7.22018C64.7727 7.68174 64.3987 8.05011 63.9234 8.32527C63.4482 8.59156 62.9113 8.7247 62.3128 8.7247H60.2798V11.9867H58.128ZM63.2633 11.9867L60.9135 7.76607L63.2237 7.43321L65.8376 12L63.2633 11.9867ZM60.2798 6.9539H62.1148C62.3436 6.9539 62.5417 6.90508 62.7089 6.80744C62.8849 6.70092 63.0169 6.5589 63.1049 6.38138C63.2017 6.20386 63.2501 5.9997 63.2501 5.76892C63.2501 5.52926 63.1929 5.32067 63.0785 5.14315C62.9729 4.96563 62.8189 4.82804 62.6165 4.73041C62.4229 4.62389 62.1896 4.57063 61.9168 4.57063H60.2798V6.9539Z" fill="black"/>
<path d="M67.2515 11.9867V10.0694H68.8093V4.58395H67.2515V2.66669H72.6245V4.58395H71.0667V10.0694H72.6245V11.9867H67.2515Z" fill="black"/>
<path d="M74.7458 11.9867V2.66669H81.188V4.61058H76.9504V10.0428H81.3333V11.9867H74.7458ZM75.8151 8.17881V6.31481H80.6072V8.17881H75.8151Z" fill="black"/>
</svg>
